<svg width="44" height="44" viewBox="0 0 44 44" fill="none" xmlns="http://www.w3.org/2000/svg">
<g filter="url(#filter0_d)">
<path d="M20.9345 33.619C28.4923 33.619 34.619 27.4923 34.619 19.9345C34.619 12.3768 28.4923 6.25 20.9345 6.25C13.3768 6.25 7.25 12.3768 7.25 19.9345C7.25 27.4923 13.3768 33.619 20.9345 33.619Z" fill="url(#paint0_linear)"/>
<path d="M21 35C12.7464 35 6 28.2536 6 20C6 11.7464 12.7464 5 21 5C29.2536 5 36 11.7464 36 20C35.9282 28.2536 29.2536 35 21 35Z" fill="url(#paint1_linear)"/>
<path d="M21 34.375C13.0903 34.375 6.625 27.9097 6.625 20C6.625 12.0903 13.0903 5.625 21 5.625C28.9097 5.625 35.375 12.0903 35.375 20C35.3062 27.9097 28.9097 34.375 21 34.375Z" fill="#02CDCF"/>
<path d="M21.8487 15.5596H20.0855V24.3752H21.8487V15.5596Z" fill="white"/>
<path d="M25.375 19.0859H16.5594V20.8491H25.375V19.0859Z" fill="white"/>
</g>
<defs>
<filter id="filter0_d" x="0" y="0" width="44" height="44" filterUnits="userSpaceOnUse" color-interpolation-filters="sRGB">
<feFlood flood-opacity="0" result="BackgroundImageFix"/>
<feColorMatrix in="SourceAlpha" type="matrix" values="0 0 0 0 0 0 0 0 0 0 0 0 0 0 0 0 0 0 127 0"/>
<feOffset dx="1" dy="2"/>
<feGaussianBlur stdDeviation="3.5"/>
<feColorMatrix type="matrix" values="0 0 0 0 0 0 0 0 0 0 0 0 0 0 0 0 0 0 0.45 0"/>
<feBlend mode="normal" in2="BackgroundImageFix" result="effect1_dropShadow"/>
<feBlend mode="normal" in="SourceGraphic" in2="effect1_dropShadow" result="shape"/>
</filter>
<linearGradient id="paint0_linear" x1="7.27671" y1="19.962" x2="34.5941" y2="19.962" gradientUnits="userSpaceOnUse">
<stop stop-color="#E52D27"/>
<stop offset="1" stop-color="#B31217"/>
</linearGradient>
<linearGradient id="paint1_linear" x1="5.99261" y1="19.9934" x2="35.936" y2="19.9934" gradientUnits="userSpaceOnUse">
<stop stop-color="white"/>
</linearGradient>
</defs>
</svg>
