<svg width="26" height="21" viewBox="0 0 26 21" fill="none" xmlns="http://www.w3.org/2000/svg">
<path fill-rule="evenodd" clip-rule="evenodd" d="M7.57556 7.30067C7.57556 7.30067 8.45012 7.6513 8.84992 8.70318C8.84992 8.70318 9.38714 8.96918 10.1992 8.2921C10.1992 8.2921 9.77445 7.31276 9.94936 6.72031C9.96185 6.69613 10.0993 6.46641 10.1118 6.44223C10.1118 6.44223 9.77445 6.36969 9.71198 6.4785C9.63702 6.59941 9.662 6.82913 9.49959 7.07094C9.33717 7.31276 9.23722 6.95004 9.18725 6.65986C9.14976 6.44223 9.06231 6.24878 9.06231 6.24878L8.82493 6.29714C8.82493 6.29714 9.02483 6.85331 8.93737 7.04676C8.86241 7.22812 8.57506 6.84122 8.36266 6.57523C8.23773 6.41805 8.05032 6.70822 8.05032 6.70822C8.05032 6.70822 8.58755 7.15558 8.51259 7.32485C8.43762 7.48203 7.96287 7.05885 7.96287 7.05885L7.57556 7.30067Z" fill="#99D19A"/>
<path fill-rule="evenodd" clip-rule="evenodd" d="M7.12575 7.57875C7.12575 7.57875 7.31315 7.82056 7.53804 7.74802C7.70046 7.69965 7.80041 7.62711 7.80041 7.43366C7.80041 7.26439 7.73794 7.21603 7.73794 7.21603C7.73794 7.21603 7.95033 7.31275 8.15023 7.13139C8.33763 6.95003 8.17522 6.72031 8.17522 6.72031C8.17522 6.72031 8.56252 6.55104 8.50005 6.26087C8.45008 6.01905 8.05028 5.92233 8.05028 5.92233C8.05028 5.92233 8.31265 5.7047 8.11275 5.42661C7.85038 5.0518 7.45058 5.42661 7.45058 5.42661C7.45058 5.42661 7.27567 5.01553 7.03829 5.06389C6.56353 5.14853 6.68847 5.53543 6.68847 5.53543C6.68847 5.53543 6.52605 5.34198 6.30117 5.48706C6.00132 5.68052 6.18872 5.94651 6.35114 6.0916C6.35114 6.0916 5.70147 6.04323 5.76394 6.49059C5.81391 6.92585 6.26368 6.81704 6.26368 6.81704C6.26368 6.81704 5.639 7.15557 6.08877 7.5062C6.26368 7.65129 6.57603 7.33693 6.57603 7.33693C6.57603 7.33693 6.35114 7.80847 6.72595 7.8931C7.11325 7.98983 7.12575 7.57875 7.12575 7.57875Z" fill="#6FBE70"/>
<path fill-rule="evenodd" clip-rule="evenodd" d="M9.29973 6.1763C9.29973 6.1763 9.16229 6.47856 9.3497 6.64783C9.52461 6.80501 9.62456 6.79292 9.78698 6.6841C9.92441 6.58738 9.9494 6.46647 9.9494 6.46647C9.9494 6.46647 9.97438 6.76874 10.2243 6.82919C10.4866 6.88964 10.6116 6.55111 10.6116 6.55111C10.6116 6.55111 10.9739 6.76874 11.1863 6.57529C11.3612 6.40602 11.2362 6.01912 11.2362 6.01912C11.2362 6.01912 11.5611 6.11584 11.6985 5.80149C11.8859 5.3904 11.3362 5.25741 11.3362 5.25741C11.3362 5.25741 11.5986 4.94305 11.4236 4.72542C11.1613 4.38688 10.824 4.68915 10.824 4.68915C10.824 4.68915 10.8364 4.44733 10.6615 4.38688C10.3242 4.26597 10.1993 4.50779 10.1493 4.71333C10.1493 4.71333 9.84945 4.15716 9.48713 4.44733C9.16229 4.73751 9.49962 5.03977 9.49962 5.03977C9.49962 5.03977 8.87494 4.71333 8.79998 5.2695C8.77499 5.48713 9.21227 5.57176 9.21227 5.57176C9.21227 5.57176 8.67504 5.64431 8.81247 6.00703C8.9499 6.38184 9.29973 6.1763 9.29973 6.1763Z" fill="#6FBE70"/>
<path fill-rule="evenodd" clip-rule="evenodd" d="M7.66303 5.37832C7.66303 5.37832 7.5256 5.68059 7.713 5.84986C7.88792 6.00704 7.98787 5.99495 8.15028 5.88613C8.28771 5.7894 8.3127 5.6685 8.3127 5.6685C8.3127 5.6685 8.33769 5.97076 8.58756 6.03122C8.84993 6.09167 8.97487 5.75313 8.97487 5.75313C8.97487 5.75313 9.33718 5.97076 9.54957 5.77731C9.72449 5.60804 9.59955 5.22114 9.59955 5.22114C9.59955 5.22114 9.92438 5.31787 10.0618 5.00351C10.2492 4.59243 9.6995 4.45943 9.6995 4.45943C9.6995 4.45943 9.96187 4.14508 9.78695 3.92744C9.52459 3.58891 9.18726 3.89117 9.18726 3.89117C9.18726 3.89117 9.19975 3.64936 9.02484 3.58891C8.68751 3.468 8.56257 3.70981 8.5126 3.91535C8.5126 3.91535 8.21275 3.35918 7.85043 3.64936C7.50061 3.92744 7.83794 4.22971 7.83794 4.22971C7.83794 4.22971 7.21326 3.90326 7.1383 4.45943C7.11331 4.67706 7.55059 4.7617 7.55059 4.7617C7.55059 4.7617 7.01336 4.83424 7.15079 5.19696C7.31321 5.58386 7.66303 5.37832 7.66303 5.37832Z" fill="#65BA67"/>
<path fill-rule="evenodd" clip-rule="evenodd" d="M7.3132 5.74108C7.3132 5.74108 7.08831 6.01917 7.21325 6.2368C7.35068 6.45443 7.45063 6.46652 7.63803 6.40607C7.81294 6.34562 7.87541 6.2368 7.87541 6.2368C7.87541 6.2368 7.80045 6.64788 8.03783 6.78088C8.2877 6.91388 8.52508 6.51489 8.52508 6.51489C8.52508 6.51489 8.82493 6.84133 9.11229 6.69625C9.34967 6.57534 9.33717 6.15217 9.33717 6.15217C9.33717 6.15217 9.63702 6.34562 9.88689 6.06753C10.2117 5.69272 9.687 5.41464 9.687 5.41464C9.687 5.41464 10.0993 5.2091 9.94936 4.89474C9.74946 4.48366 9.33717 4.6892 9.33717 4.6892C9.33717 4.6892 9.42463 4.44739 9.26221 4.33857C8.96236 4.12094 8.74997 4.32648 8.63753 4.53202C8.63753 4.53202 8.5001 3.87912 8.03783 4.07257C7.58806 4.25393 7.83793 4.66502 7.83793 4.66502C7.83793 4.66502 7.32569 4.21766 7.10081 4.73756C7.00086 4.95519 7.38816 5.12446 7.38816 5.12446C7.38816 5.12446 6.81345 5.03983 6.83844 5.45091C6.88841 5.8499 7.3132 5.74108 7.3132 5.74108Z" fill="#85C886"/>
<path fill-rule="evenodd" clip-rule="evenodd" d="M9.94952 6.672C9.94952 6.672 9.97451 7.33698 9.53723 7.94152C9.09995 8.54605 8.83759 8.69114 8.83759 8.69114C8.83759 8.69114 9.37481 8.95713 10.1869 8.28005C10.1869 8.28005 9.76212 7.30071 9.93703 6.70827" fill="#8BCB8C"/>
<path d="M3.4776 5.14854C3.4776 5.14854 3.22773 4.72537 2.75297 4.81001C2.54058 4.84628 1.94088 5.24527 1.34118 4.93091C0.753981 4.61655 1.1038 4.18129 1.55358 4.1692C2.00335 4.14502 2.00335 4.14502 2.00335 4.14502C2.00335 4.14502 0.466627 4.41101 0.416652 3.73394C0.379171 3.18986 1.04134 3.25031 1.04134 3.25031C1.04134 3.25031 -0.245512 3.16568 0.041842 2.45233C0.254234 1.94452 1.12879 2.57324 1.12879 2.57324C1.12879 2.57324 0.491614 1.94452 1.15378 1.67853C1.91589 1.37626 1.91589 2.85132 1.91589 2.85132C1.91589 2.85132 1.9034 1.61807 2.59055 1.98079C3.25272 2.33142 2.60304 3.2624 2.60304 3.2624C2.60304 3.2624 2.94037 2.33142 3.41513 2.80296C3.8774 3.27449 3.4776 4.07248 3.32768 4.20547C3.17775 4.33847 4.01483 5.14854 4.0773 5.63217C4.11478 6.1158 3.4776 5.14854 3.4776 5.14854Z" fill="#61B863"/>
<path d="M1.17876 1.92017C1.12878 1.93226 1.1038 1.99272 1.11629 2.05317C1.11629 2.05317 1.30369 2.5368 1.42863 3.00833C0.77896 2.62143 0.26672 2.41589 0.241732 2.4038C0.191757 2.37962 0.116795 2.4038 0.104302 2.46425C0.0793145 2.51261 0.104302 2.58516 0.16677 2.59725C0.179264 2.59725 0.853922 2.87533 1.62853 3.38314C1.24123 3.44359 0.753973 3.60077 0.691504 3.62495C0.629036 3.64914 0.604049 3.70959 0.629036 3.75795C0.654023 3.8184 0.716492 3.84259 0.766466 3.8184C1.00385 3.73377 1.65352 3.54032 1.91588 3.5645C2.16576 3.74586 2.42812 3.9514 2.678 4.16903C2.20324 4.19321 1.55357 4.39876 1.46611 4.43503C1.40364 4.45921 1.37866 4.51966 1.40364 4.56802C1.42863 4.62848 1.4911 4.65266 1.54107 4.62848C1.81593 4.53175 2.59054 4.31412 2.91538 4.38667C3.30268 4.78566 3.64001 5.23301 3.83991 5.74082C3.8649 5.78918 3.92736 5.82545 3.97734 5.80127C4.01482 5.78918 4.03981 5.75291 4.0523 5.71664C4.0523 5.70455 4.0523 5.68036 4.0523 5.66827C3.83991 5.12419 3.47759 4.64057 3.0778 4.24158C2.91538 3.92722 3.15276 3.26223 3.2652 3.02042C3.2652 3.00833 3.27769 2.99624 3.27769 2.99624C3.29019 2.94788 3.2652 2.91161 3.21523 2.88742C3.16525 2.86324 3.09029 2.88742 3.0778 2.93579C3.0653 2.95997 2.81543 3.51614 2.81543 3.97558C2.678 3.85468 2.55306 3.74586 2.41563 3.63704C2.25321 3.35896 2.44062 2.59725 2.52807 2.31916C2.54057 2.25871 2.51558 2.21035 2.45311 2.18617C2.39064 2.17408 2.34067 2.19826 2.31568 2.25871C2.29069 2.34335 2.0908 2.97206 2.12828 3.4315C2.0908 3.40732 2.06581 3.38314 2.02833 3.35896C1.96586 3.3106 1.90339 3.27433 1.84092 3.22596C1.80344 3.20178 1.75347 3.1776 1.71599 3.14133C1.59105 2.59725 1.34118 1.98063 1.34118 1.94435C1.30369 1.92017 1.24123 1.89599 1.17876 1.92017Z" fill="#69BC6B"/>
<path d="M3.95234 5.01551C3.95234 5.01551 3.97733 4.53188 3.52756 4.35052C3.32766 4.27798 2.60302 4.30216 2.26569 3.7339C1.92837 3.16564 2.46559 2.97219 2.86539 3.18982C3.25269 3.40745 3.25269 3.40745 3.25269 3.40745C3.25269 3.40745 1.80343 2.83919 2.12826 2.24675C2.39063 1.76312 2.91537 2.16212 2.91537 2.16212C2.91537 2.16212 1.87839 1.42459 2.52806 0.965142C2.99033 0.638694 3.39013 1.63013 3.39013 1.63013C3.39013 1.63013 3.17773 0.771691 3.88987 0.880507C4.70196 1.0135 3.88987 2.25884 3.88987 2.25884C3.88987 2.25884 4.55204 1.20695 4.93934 1.87194C5.30166 2.51274 4.25219 2.97219 4.25219 2.97219C4.25219 2.97219 5.05178 2.35557 5.18921 2.99637C5.32664 3.63717 4.53954 4.09662 4.35214 4.14498C4.15224 4.18125 4.4271 5.29359 4.20221 5.74095C3.96483 6.16412 3.95234 5.01551 3.95234 5.01551Z" fill="#69BC6B"/>
<path d="M3.77749 1.09816C3.71502 1.08607 3.66505 1.12234 3.65255 1.1828C3.65255 1.1828 3.5526 1.6906 3.40268 2.15005C3.06535 1.48506 2.75301 1.0498 2.72802 1.02562C2.69054 0.977255 2.62807 0.965165 2.5781 1.00144C2.52812 1.03771 2.51563 1.09816 2.55311 1.14652C2.5656 1.15862 2.97789 1.73897 3.3652 2.56113C3.00288 2.41604 2.50313 2.30723 2.42817 2.28305C2.3657 2.27096 2.31573 2.30723 2.30324 2.36768C2.29074 2.42813 2.32822 2.4765 2.39069 2.48859C2.64057 2.53695 3.29024 2.70622 3.50263 2.8634C3.61507 3.14148 3.72751 3.45584 3.81497 3.7702C3.40268 3.54047 2.72802 3.3833 2.64057 3.3712C2.5781 3.35911 2.52812 3.39539 2.51563 3.45584C2.50313 3.51629 2.54062 3.56465 2.60308 3.57675C2.89044 3.6372 3.66505 3.85483 3.90243 4.08455C4.01487 4.61654 4.05235 5.17271 3.93991 5.7047C3.92741 5.76515 3.96489 5.81352 4.02736 5.82561C4.06484 5.8377 4.10232 5.81352 4.12731 5.78933C4.13981 5.77724 4.1523 5.76515 4.1523 5.74097C4.26474 5.17271 4.22726 4.58027 4.11482 4.0241C4.1523 3.67347 4.71451 3.22612 4.9394 3.09312C4.95189 3.09312 4.95189 3.08103 4.96439 3.06894C4.98938 3.03267 5.00187 2.9843 4.96439 2.94803C4.92691 2.89967 4.86444 2.88758 4.81446 2.92385C4.78948 2.94803 4.27724 3.28657 4.02736 3.67347C3.97739 3.5042 3.92741 3.33493 3.87744 3.17775C3.88993 2.85131 4.47713 2.30723 4.70202 2.11378C4.752 2.0775 4.752 2.00496 4.71451 1.96869C4.67703 1.92033 4.60207 1.92033 4.56459 1.9566C4.48963 2.01705 3.98988 2.45231 3.765 2.8634C3.7525 2.82713 3.74001 2.79085 3.71502 2.75458C3.69003 2.68204 3.65255 2.62158 3.62757 2.54904C3.60258 2.50068 3.59008 2.46441 3.5651 2.41604C3.7525 1.88405 3.88993 1.24325 3.88993 1.20698C3.87744 1.15862 3.83996 1.11025 3.77749 1.09816Z" fill="#61B863"/>
<path d="M3.51519 5.60806C3.51519 5.60806 2.00345 6.23677 2.40325 8.20755C2.81554 10.2871 5.81402 13.9143 7.71306 13.9506C10.0369 13.999 8.25029 8.54608 7.22581 6.4544C6.40122 4.79798 4.36475 4.91889 3.51519 5.60806Z" fill="#FFCBA8"/>
<path d="M3.14044 7.43365C3.14044 7.43365 3.64019 6.95002 4.26487 6.80493" stroke="#FFD8BE" stroke-width="2.4027" stroke-miterlimit="10" stroke-linecap="round" stroke-linejoin="round"/>
<path d="M5.37671 7.62708C5.37671 7.62708 5.73903 7.37317 6.06386 7.36108" stroke="#FFD8BE" stroke-width="2.4027" stroke-miterlimit="10" stroke-linecap="round" stroke-linejoin="round"/>
<path d="M4.00256 9.82768C4.00256 9.82768 4.60226 9.33197 5.02704 9.21106" stroke="#FFD8BE" stroke-width="2.4027" stroke-miterlimit="10" stroke-linecap="round" stroke-linejoin="round"/>
<path d="M6.03888 7.89303C6.03888 7.89303 6.72603 7.50613 7.16331 7.45776" stroke="#FFD8BE" stroke-width="2.4027" stroke-miterlimit="10" stroke-linecap="round" stroke-linejoin="round"/>
<path d="M5.914 9.57363C5.914 9.57363 6.43874 9.27137 6.63863 9.25928" stroke="#FFD8BE" stroke-width="2.4027" stroke-miterlimit="10" stroke-linecap="round" stroke-linejoin="round"/>
<path d="M5.33917 11.3751C5.33917 11.3751 5.8764 10.9278 6.17625 10.8673" stroke="#FFD8BE" stroke-width="2.4027" stroke-miterlimit="10" stroke-linecap="round" stroke-linejoin="round"/>
<path d="M6.58844 12.9953C6.58844 12.9953 6.8633 12.7656 7.13816 12.6326" stroke="#FFD8BE" stroke-width="2.4027" stroke-miterlimit="10" stroke-linecap="round" stroke-linejoin="round"/>
<path d="M7.26312 11.9918C7.26312 11.9918 7.7004 11.5807 8.18765 11.5082" stroke="#FFD8BE" stroke-width="2.4027" stroke-miterlimit="10" stroke-linecap="round" stroke-linejoin="round"/>
<path d="M4.26483 6.1157C4.26483 6.1157 4.67712 5.7167 5.27682 5.65625" stroke="#FFD8BE" stroke-width="2.4027" stroke-miterlimit="10" stroke-linecap="round" stroke-linejoin="round"/>
<path d="M2.89044 8.29205C2.89044 8.29205 3.1653 8.00188 3.57759 7.90515" stroke="#FFD8BE" stroke-width="2.4027" stroke-miterlimit="10" stroke-linecap="round" stroke-linejoin="round"/>
<path opacity="0.6" d="M7.70057 13.9504C10.0244 13.9988 8.2378 8.54591 7.21332 6.45422C7.21332 6.45422 8.10037 9.87588 7.95045 11.5686C7.80052 13.1887 7.0509 13.8174 7.0509 13.8174L7.70057 13.9504Z" fill="#FFC7A1"/>
<path d="M5.83893 8.84825C5.9014 8.93288 5.88891 9.0417 5.80145 9.11424C5.714 9.17469 5.60155 9.1626 5.52659 9.07797C5.46412 8.99333 5.47662 8.88452 5.56407 8.81197C5.65153 8.75152 5.77646 8.7757 5.83893 8.84825Z" fill="#FFD8BE"/>
<path d="M7.72535 9.41638C7.78782 9.50102 7.77532 9.60984 7.68787 9.68238C7.60041 9.74283 7.48797 9.73074 7.41301 9.64611C7.35054 9.56147 7.36303 9.45266 7.45049 9.38011C7.55044 9.30757 7.66288 9.33175 7.72535 9.41638Z" fill="#FFD8BE"/>
<path d="M6.01386 12.1611C6.07633 12.2458 6.06383 12.3546 5.97638 12.4271C5.88892 12.4876 5.77648 12.4755 5.70152 12.3909C5.63905 12.3062 5.65154 12.1974 5.739 12.1249C5.82646 12.0523 5.95139 12.0765 6.01386 12.1611Z" fill="#FFD8BE"/>
<path d="M5.0268 6.47849C5.08927 6.56313 5.07677 6.67194 4.98932 6.74449C4.90186 6.80494 4.78942 6.79285 4.71446 6.70822C4.65199 6.62358 4.66448 6.51477 4.75194 6.44222C4.83939 6.38177 4.96433 6.40595 5.0268 6.47849Z" fill="#FFD8BE"/>
<path opacity="0.2" d="M2.9527 6.8413C2.9527 6.8413 2.66534 7.85692 2.91522 8.43727C3.16509 9.01762 3.61486 9.00553 3.81476 8.7879C4.17708 8.3889 3.86474 7.27656 4.06463 6.85339C4.36448 6.18841 3.09013 5.87405 2.9527 6.8413Z" fill="#FFF3DD"/>
<path fill-rule="evenodd" clip-rule="evenodd" d="M18.3702 7.21607C18.3702 7.21607 19.2447 7.5667 19.6445 8.61859C19.6445 8.61859 20.1818 8.88458 20.9938 8.2075C20.9938 8.2075 20.5691 7.22816 20.744 6.63572C20.7565 6.61154 20.8939 6.38182 20.9064 6.35764C20.9064 6.35764 20.5691 6.28509 20.5066 6.39391C20.4316 6.51481 20.4566 6.74454 20.2942 6.98635C20.1318 7.22816 20.0318 6.86544 19.9819 6.57527C19.9444 6.35764 19.8569 6.16418 19.8569 6.16418L19.6195 6.21255C19.6195 6.21255 19.8194 6.76872 19.732 6.96217C19.657 7.14353 19.3697 6.75663 19.1573 6.49063C19.0323 6.33345 18.8449 6.62363 18.8449 6.62363C18.8449 6.62363 19.3822 7.07098 19.3072 7.24025C19.2322 7.39743 18.7575 6.97426 18.7575 6.97426L18.3702 7.21607Z" fill="#99D19A"/>
<path fill-rule="evenodd" clip-rule="evenodd" d="M17.9204 7.50612C17.9204 7.50612 18.1078 7.74793 18.3327 7.67538C18.4951 7.62702 18.595 7.55448 18.595 7.36103C18.595 7.19176 18.5326 7.1434 18.5326 7.1434C18.5326 7.1434 18.7449 7.24012 18.9448 7.05876C19.1323 6.8774 18.9698 6.64768 18.9698 6.64768C18.9698 6.64768 19.3571 6.47841 19.2947 6.18823C19.2447 5.94642 18.8449 5.8497 18.8449 5.8497C18.8449 5.8497 19.1073 5.63206 18.9074 5.35398C18.645 4.97917 18.2452 5.35398 18.2452 5.35398C18.2452 5.35398 18.0703 4.9429 17.8329 4.99126C17.3581 5.07589 17.4831 5.4628 17.4831 5.4628C17.4831 5.4628 17.3207 5.26935 17.0958 5.41443C16.7959 5.60788 16.9833 5.87388 17.1458 6.01897C17.1458 6.01897 16.4961 5.9706 16.5586 6.41796C16.6085 6.85322 17.0583 6.7444 17.0583 6.7444C17.0583 6.7444 16.4336 7.08294 16.8834 7.43357C17.0583 7.57866 17.3706 7.2643 17.3706 7.2643C17.3706 7.2643 17.1458 7.73584 17.5206 7.82047C17.9079 7.90511 17.9204 7.50612 17.9204 7.50612Z" fill="#6FBE70"/>
<path fill-rule="evenodd" clip-rule="evenodd" d="M20.1066 6.09158C20.1066 6.09158 19.9691 6.39384 20.1565 6.56311C20.3315 6.72029 20.4314 6.7082 20.5938 6.59939C20.7313 6.50266 20.7562 6.38175 20.7562 6.38175C20.7562 6.38175 20.7812 6.68402 21.0311 6.74447C21.2935 6.80493 21.4184 6.46639 21.4184 6.46639C21.4184 6.46639 21.7807 6.68402 21.9931 6.49057C22.168 6.3213 22.0431 5.9344 22.0431 5.9344C22.0431 5.9344 22.3679 6.03113 22.5054 5.71677C22.6928 5.30569 22.143 5.17269 22.143 5.17269C22.143 5.17269 22.4054 4.85833 22.2305 4.6407C21.9681 4.30216 21.6308 4.60443 21.6308 4.60443C21.6308 4.60443 21.6433 4.36262 21.4684 4.30216C21.1311 4.18126 21.0061 4.42307 20.9561 4.62861C20.9561 4.62861 20.6563 4.07244 20.294 4.36262C19.9442 4.6407 20.2815 4.94297 20.2815 4.94297C20.2815 4.94297 19.6568 4.61652 19.5818 5.17269C19.5569 5.39032 19.9941 5.47496 19.9941 5.47496C19.9941 5.47496 19.4569 5.5475 19.5943 5.91022C19.7567 6.29712 20.1066 6.09158 20.1066 6.09158Z" fill="#6FBE70"/>
<path fill-rule="evenodd" clip-rule="evenodd" d="M18.4702 5.2936C18.4702 5.2936 18.3327 5.59587 18.5201 5.76514C18.695 5.92232 18.795 5.91023 18.9574 5.80141C19.0948 5.70469 19.1198 5.58378 19.1198 5.58378C19.1198 5.58378 19.1448 5.88605 19.3947 5.9465C19.6571 6.00695 19.782 5.66842 19.782 5.66842C19.782 5.66842 20.1443 5.88605 20.3567 5.6926C20.5316 5.52333 20.4067 5.13643 20.4067 5.13643C20.4067 5.13643 20.7315 5.23315 20.8689 4.9188C21.0563 4.50771 20.5066 4.37472 20.5066 4.37472C20.5066 4.37472 20.769 4.06036 20.5941 3.84273C20.3317 3.50419 19.9944 3.80646 19.9944 3.80646C19.9944 3.80646 20.0069 3.56464 19.832 3.50419C19.4946 3.38328 19.3697 3.6251 19.3197 3.83064C19.3197 3.83064 19.0199 3.27447 18.6576 3.56464C18.3077 3.84273 18.6451 4.14499 18.6451 4.14499C18.6451 4.14499 18.0204 3.81855 17.9454 4.37472C17.9204 4.59235 18.3577 4.67698 18.3577 4.67698C18.3577 4.67698 17.8205 4.74953 17.9579 5.11225C18.1078 5.49915 18.4702 5.2936 18.4702 5.2936Z" fill="#65BA67"/>
<path fill-rule="evenodd" clip-rule="evenodd" d="M18.1201 5.65637C18.1201 5.65637 17.8952 5.93445 18.0201 6.15208C18.1576 6.36972 18.2575 6.38181 18.4449 6.32135C18.6198 6.2609 18.6823 6.15208 18.6823 6.15208C18.6823 6.15208 18.6073 6.56317 18.8447 6.69616C19.0946 6.82916 19.332 6.43017 19.332 6.43017C19.332 6.43017 19.6318 6.75662 19.9192 6.61153C20.1566 6.49062 20.1441 6.06745 20.1441 6.06745C20.1441 6.06745 20.4439 6.2609 20.6938 5.98282C21.0186 5.60801 20.4939 5.32992 20.4939 5.32992C20.4939 5.32992 20.9062 5.12438 20.7562 4.81002C20.5563 4.39894 20.1441 4.60448 20.1441 4.60448C20.1441 4.60448 20.2315 4.36267 20.0691 4.25385C19.7692 4.03622 19.5569 4.24176 19.4444 4.4473C19.4444 4.4473 19.307 3.79441 18.8447 3.98786C18.3949 4.16922 18.6448 4.5803 18.6448 4.5803C18.6448 4.5803 18.1326 4.13295 17.9077 4.65284C17.8077 4.87048 18.195 5.03974 18.195 5.03974C18.195 5.03974 17.6203 4.95511 17.6453 5.36619C17.6953 5.76518 18.1201 5.65637 18.1201 5.65637Z" fill="#85C886"/>
<path fill-rule="evenodd" clip-rule="evenodd" d="M20.7564 6.59937C20.7564 6.59937 20.7814 7.26435 20.3441 7.86888C19.9068 8.47342 19.6445 8.6185 19.6445 8.6185C19.6445 8.6185 20.1817 8.8845 20.9938 8.20742C20.9938 8.20742 20.569 7.22808 20.7439 6.63564" fill="#8BCB8C"/>
<path fill-rule="evenodd" clip-rule="evenodd" d="M21.5186 7.40955C21.5186 7.40955 21.4561 8.31634 20.5691 9.02969C20.5691 9.02969 20.4941 9.59795 21.4187 10.1299C21.4187 10.1299 22.2307 9.41659 22.8679 9.38032C22.9054 9.38032 23.1678 9.42868 23.1928 9.44078C23.1928 9.44078 23.1428 9.11433 23.0178 9.09015C22.8679 9.05387 22.6555 9.16269 22.3682 9.09015C22.0808 9.0176 22.4057 8.79997 22.668 8.67906C22.8679 8.58234 23.0303 8.42516 23.0303 8.42516L22.9054 8.23171C22.9054 8.23171 22.4181 8.59443 22.2183 8.58234C22.0059 8.57025 22.3057 8.18335 22.4806 7.90526C22.5931 7.74808 22.2557 7.66345 22.2557 7.66345C22.2557 7.66345 21.9934 8.30425 21.806 8.28007C21.6186 8.26798 21.8809 7.68763 21.8809 7.68763L21.5186 7.40955Z" fill="#99D19A"/>
<path fill-rule="evenodd" clip-rule="evenodd" d="M21.0937 7.09509C21.0937 7.09509 20.9188 7.33691 21.0687 7.53036C21.1812 7.66335 21.2811 7.7359 21.456 7.66335C21.6184 7.6029 21.6434 7.53036 21.6434 7.53036C21.6434 7.53036 21.6184 7.76008 21.8558 7.88099C22.0932 8.00189 22.2681 7.77217 22.2681 7.77217C22.2681 7.77217 22.568 8.07444 22.8303 7.91726C23.0427 7.79635 23.0177 7.39736 23.0177 7.39736C23.0177 7.39736 23.3051 7.56663 23.53 7.28854C23.8173 6.92582 23.3051 6.68401 23.3051 6.68401C23.3051 6.68401 23.6424 6.39384 23.53 6.18829C23.2926 5.7893 22.9553 6.01902 22.9553 6.01902C22.9553 6.01902 23.0927 5.81348 22.8803 5.65631C22.593 5.45076 22.3931 5.70467 22.3056 5.89812C22.3056 5.89812 22.1432 5.29359 21.7309 5.48704C21.3186 5.68049 21.5685 6.0553 21.5685 6.0553C21.5685 6.0553 21.0312 5.58376 20.8438 6.11575C20.7689 6.32129 21.1687 6.50265 21.1687 6.50265C21.1687 6.50265 20.6314 6.45429 20.6689 6.8291C20.6939 7.216 21.0937 7.09509 21.0937 7.09509Z" fill="#6FBE70"/>
<path fill-rule="evenodd" clip-rule="evenodd" d="M23.1927 8.63056C23.1927 8.63056 22.8554 8.60638 22.7554 8.82401C22.6555 9.04164 22.7055 9.12627 22.8554 9.23509C22.9928 9.33182 23.1177 9.31973 23.1177 9.31973C23.1177 9.31973 22.8304 9.44063 22.8554 9.69454C22.8804 9.94844 23.2552 9.96053 23.2552 9.96053C23.2552 9.96053 23.1552 10.3595 23.4301 10.4925C23.655 10.6013 23.9923 10.3595 23.9923 10.3595C23.9923 10.3595 24.0048 10.686 24.3546 10.7102C24.8169 10.7464 24.7669 10.2023 24.7669 10.2023C24.7669 10.2023 25.1542 10.3353 25.3166 10.1056C25.5665 9.75499 25.1542 9.53736 25.1542 9.53736C25.1542 9.53736 25.3916 9.4769 25.3916 9.29554C25.4041 8.94491 25.1167 8.90864 24.9043 8.94492C24.9043 8.94492 25.3416 8.48547 24.9418 8.24366C24.5545 8.01393 24.3671 8.42502 24.3671 8.42502C24.3671 8.42502 24.4796 7.73585 23.9173 7.86885C23.6925 7.91721 23.7549 8.34038 23.7549 8.34038C23.7549 8.34038 23.505 7.86885 23.2052 8.11066C22.8679 8.36456 23.1927 8.63056 23.1927 8.63056Z" fill="#6FBE70"/>
<path fill-rule="evenodd" clip-rule="evenodd" d="M23.4176 6.86542C23.4176 6.86542 23.0803 6.84124 22.9803 7.05887C22.8804 7.2765 22.9304 7.36114 23.0803 7.46995C23.2177 7.56668 23.3427 7.55459 23.3427 7.55459C23.3427 7.55459 23.0553 7.6755 23.0803 7.9294C23.1053 8.1833 23.4801 8.19539 23.4801 8.19539C23.4801 8.19539 23.3801 8.59438 23.655 8.72738C23.8799 8.8362 24.2172 8.59438 24.2172 8.59438C24.2172 8.59438 24.2297 8.92083 24.5795 8.94501C25.0418 8.98129 24.9918 8.43721 24.9918 8.43721C24.9918 8.43721 25.3791 8.5702 25.5415 8.34048C25.7914 7.98985 25.3791 7.77222 25.3791 7.77222C25.3791 7.77222 25.6165 7.71177 25.6165 7.53041C25.629 7.17978 25.3416 7.14351 25.1293 7.17978C25.1293 7.17978 25.5665 6.72033 25.1667 6.47852C24.7794 6.2488 24.592 6.65988 24.592 6.65988C24.592 6.65988 24.7045 5.97071 24.1423 6.10371C23.9174 6.15207 23.9798 6.57525 23.9798 6.57525C23.9798 6.57525 23.73 6.10371 23.4301 6.34552C23.1053 6.61152 23.4176 6.86542 23.4176 6.86542Z" fill="#65BA67"/>
<path fill-rule="evenodd" clip-rule="evenodd" d="M22.9553 6.65986C22.9553 6.65986 22.618 6.53896 22.4431 6.73241C22.2807 6.92586 22.2932 7.02258 22.4181 7.17976C22.5306 7.32485 22.6555 7.33694 22.6555 7.33694C22.6555 7.33694 22.2307 7.39739 22.1682 7.66339C22.1183 7.92938 22.593 8.02611 22.593 8.02611C22.593 8.02611 22.3681 8.41301 22.6055 8.61855C22.8054 8.79991 23.2177 8.64273 23.2177 8.64273C23.2177 8.64273 23.1302 8.98127 23.4801 9.11427C23.9423 9.28354 24.0548 8.71528 24.0548 8.71528C24.0548 8.71528 24.3796 9.01754 24.6545 8.77573C24.9918 8.46137 24.6545 8.14701 24.6545 8.14701C24.6545 8.14701 24.9168 8.14701 24.9793 7.96565C25.0918 7.61503 24.8169 7.49412 24.592 7.45785C24.592 7.45785 25.1792 7.11931 24.8544 6.75659C24.5295 6.40596 24.2047 6.76868 24.2047 6.76868C24.2047 6.76868 24.4796 6.15206 23.8924 6.11579C23.6425 6.10369 23.6175 6.50269 23.6175 6.50269C23.6175 6.50269 23.5051 5.95861 23.1178 6.11579C22.7055 6.30924 22.9553 6.65986 22.9553 6.65986Z" fill="#85C886"/>
<path fill-rule="evenodd" clip-rule="evenodd" d="M22.9054 9.38029C22.9054 9.38029 22.2682 9.62211 21.5311 9.42865C20.794 9.22311 20.5691 9.02966 20.5691 9.02966C20.5691 9.02966 20.4941 9.59792 21.4187 10.1299C21.4187 10.1299 22.2307 9.41656 22.8679 9.38029" fill="#8BCB8C"/>
<path fill-rule="evenodd" clip-rule="evenodd" d="M12.1356 6.07929C12.1356 6.07929 12.6229 6.86518 12.3105 7.92916C12.3105 7.92916 12.5854 8.43697 13.6598 8.36442C13.6598 8.36442 13.9097 7.33672 14.4095 6.94982C14.4345 6.92563 14.6843 6.82891 14.7093 6.81682C14.7093 6.81682 14.4844 6.57501 14.3595 6.62337C14.2221 6.68382 14.1096 6.87727 13.8223 6.98609C13.5349 7.08281 13.6848 6.73218 13.8223 6.47828C13.9347 6.28483 13.9722 6.0672 13.9722 6.0672L13.7473 5.97047C13.7473 5.97047 13.5599 6.53873 13.385 6.63546C13.2101 6.74427 13.2226 6.26065 13.2101 5.9342C13.2101 5.74075 12.8852 5.86166 12.8852 5.86166C12.8852 5.86166 13.0477 6.52664 12.8852 6.62337C12.7228 6.708 12.5979 6.10347 12.5979 6.10347L12.1356 6.07929Z" fill="#99D19A"/>
<path fill-rule="evenodd" clip-rule="evenodd" d="M11.611 6.05518C11.611 6.05518 11.611 6.35744 11.8484 6.42999C12.0108 6.47835 12.1357 6.47835 12.2482 6.33326C12.3481 6.20027 12.3231 6.11563 12.3231 6.11563C12.3231 6.11563 12.4356 6.32117 12.6979 6.2849C12.9603 6.24863 12.9728 5.97054 12.9728 5.97054C12.9728 5.97054 13.3976 6.05518 13.5225 5.78918C13.635 5.57155 13.3601 5.2572 13.3601 5.2572C13.3601 5.2572 13.6974 5.23301 13.7099 4.89448C13.7349 4.44712 13.1727 4.51967 13.1727 4.51967C13.1727 4.51967 13.2851 4.09649 13.0603 3.98768C12.623 3.78214 12.4855 4.16904 12.4855 4.16904C12.4855 4.16904 12.4731 3.92722 12.1982 3.91513C11.8359 3.90304 11.8234 4.2174 11.8609 4.43503C11.8609 4.43503 11.3736 4.02395 11.1362 4.41085C10.9113 4.79775 11.3361 4.96702 11.3361 4.96702C11.3361 4.96702 10.624 4.87029 10.7739 5.42646C10.8364 5.6441 11.2737 5.55946 11.2737 5.55946C11.2737 5.55946 10.7989 5.81337 11.0613 6.10354C11.3486 6.38163 11.611 6.05518 11.611 6.05518Z" fill="#6FBE70"/>
<path fill-rule="evenodd" clip-rule="evenodd" d="M14.2223 6.1639C14.2223 6.1639 13.9349 6.33317 13.9724 6.56289C14.0224 6.79261 14.1098 6.84098 14.2972 6.84098C14.4721 6.84098 14.5596 6.76843 14.5596 6.76843C14.5596 6.76843 14.3972 7.02234 14.5596 7.21579C14.7345 7.40924 15.0343 7.21579 15.0343 7.21579C15.0343 7.21579 15.1968 7.60269 15.4966 7.56642C15.7465 7.53014 15.8714 7.14324 15.8714 7.14324C15.8714 7.14324 16.0713 7.40924 16.3837 7.22788C16.7835 6.99815 16.4211 6.58707 16.4211 6.58707C16.4211 6.58707 16.8209 6.49035 16.8209 6.20017C16.8209 5.777 16.3462 5.82536 16.3462 5.82536C16.3462 5.82536 16.5086 5.644 16.3962 5.48682C16.1963 5.19665 15.9464 5.31755 15.784 5.46264C15.784 5.46264 15.8714 4.84602 15.4092 4.8702C14.9594 4.89438 15.0468 5.34174 15.0468 5.34174C15.0468 5.34174 14.7345 4.71302 14.3472 5.1241C14.1848 5.29337 14.4971 5.59564 14.4971 5.59564C14.4971 5.59564 14.0224 5.35383 13.9099 5.71655C13.81 6.12763 14.2223 6.1639 14.2223 6.1639Z" fill="#6FBE70"/>
<path fill-rule="evenodd" clip-rule="evenodd" d="M13.3852 4.59224C13.3852 4.59224 13.0978 4.76151 13.1353 4.99124C13.1853 5.22096 13.2727 5.26932 13.4601 5.26932C13.635 5.26932 13.7225 5.19678 13.7225 5.19678C13.7225 5.19678 13.5601 5.45068 13.7225 5.64413C13.8974 5.83758 14.1972 5.64413 14.1972 5.64413C14.1972 5.64413 14.3597 6.03103 14.6595 5.99476C14.9094 5.95849 15.0343 5.57159 15.0343 5.57159C15.0343 5.57159 15.2342 5.83758 15.5466 5.65622C15.9464 5.4265 15.584 5.01542 15.584 5.01542C15.584 5.01542 15.9838 4.91869 15.9838 4.62852C15.9838 4.20534 15.5091 4.25371 15.5091 4.25371C15.5091 4.25371 15.6715 4.07235 15.5591 3.91517C15.3592 3.62499 15.1093 3.7459 14.9469 3.89099C14.9469 3.89099 15.0343 3.27436 14.5721 3.29854C14.1223 3.32273 14.2097 3.77008 14.2097 3.77008C14.2097 3.77008 13.8974 3.14137 13.5101 3.55245C13.3477 3.72172 13.66 4.02398 13.66 4.02398C13.66 4.02398 13.1853 3.78217 13.0728 4.14489C12.9729 4.55597 13.3852 4.59224 13.3852 4.59224Z" fill="#65BA67"/>
<path fill-rule="evenodd" clip-rule="evenodd" d="M12.8855 4.67695C12.8855 4.67695 12.5357 4.76158 12.5107 5.01549C12.4857 5.26939 12.5607 5.32984 12.7606 5.3903C12.9355 5.45075 13.0479 5.3903 13.0479 5.3903C13.0479 5.3903 12.7356 5.68047 12.848 5.93438C12.9605 6.18828 13.4102 5.99483 13.4102 5.99483C13.4102 5.99483 13.4477 6.43009 13.7725 6.47845C14.0349 6.51473 14.2848 6.1641 14.2848 6.1641C14.2848 6.1641 14.4097 6.49055 14.772 6.40591C15.2593 6.285 15.0094 5.76511 15.0094 5.76511C15.0094 5.76511 15.4592 5.83765 15.5341 5.48702C15.6216 5.03967 15.1718 4.97921 15.1718 4.97921C15.1718 4.97921 15.3842 4.83413 15.3342 4.65277C15.2218 4.30214 14.922 4.3505 14.7221 4.45932C14.7221 4.45932 15.0094 3.85478 14.5222 3.74597C14.0474 3.63715 13.9974 4.12078 13.9974 4.12078C13.9974 4.12078 13.86 3.46788 13.3602 3.75806C13.1479 3.87896 13.3602 4.22959 13.3602 4.22959C13.3602 4.22959 12.948 3.84269 12.7231 4.18123C12.4732 4.51977 12.8855 4.67695 12.8855 4.67695Z" fill="#85C886"/>
<path fill-rule="evenodd" clip-rule="evenodd" d="M14.4345 6.93774C14.4345 6.93774 14.0597 7.49391 13.335 7.72364C12.6104 7.96545 12.3105 7.92918 12.3105 7.92918C12.3105 7.92918 12.5854 8.43698 13.6599 8.36444C13.6599 8.36444 13.9097 7.33674 14.4095 6.94983" fill="#8BCB8C"/>
<path d="M22.0557 4.37478C21.556 4.2176 20.8313 4.13297 20.2691 4.89468C19.5944 5.82566 19.0822 6.672 18.3951 7.20399C17.7079 7.73598 16.4835 9.36822 17.433 11.1335C18.3826 12.8987 20.5814 12.9954 21.4435 12.7899C23.1177 12.403 23.9048 10.8191 23.43 8.64278C23.0927 7.10727 23.2051 6.74455 23.2801 6.18838C23.355 5.53548 23.0927 4.68914 22.0557 4.37478Z" fill="#CDE9CE" stroke="#CDE38E" stroke-width="2.1298" stroke-miterlimit="10"/>
<path d="M22.0557 10.2146C21.7684 11.1335 20.7564 11.6655 19.7944 11.3753C18.8448 11.0972 18.2951 10.1178 18.595 9.18687C18.8823 8.26798 19.8943 7.73599 20.8563 8.02617C21.8058 8.31634 22.3431 9.29568 22.0557 10.2146Z" fill="#FAAE42"/>
<path d="M21.9182 8.88464C21.9682 9.13855 21.9432 9.41663 21.8682 9.68263C21.5809 10.6015 20.5689 11.1335 19.6069 10.8433C19.1321 10.6982 18.7573 10.3839 18.5449 9.99698C18.6574 10.6378 19.1196 11.1819 19.8068 11.3874C20.7563 11.6655 21.7683 11.1456 22.0681 10.2267C22.1931 9.75517 22.1306 9.28363 21.9182 8.88464Z" fill="#FFAA71"/>
<path opacity="0.2" d="M19.8944 8.98117C19.7319 9.10207 19.5071 9.10207 19.4071 8.96908C19.3072 8.83608 19.3571 8.63054 19.5196 8.50963C19.682 8.38873 19.9069 8.38873 20.0068 8.52172C20.1068 8.65472 20.0568 8.86026 19.8944 8.98117Z" fill="#FFEAC2"/>
<path opacity="0.2" d="M17.2705 11.1455C18.2201 12.9107 20.5814 13.1162 21.4559 12.9228C23.1301 12.5359 24.0296 10.8069 23.5548 8.63062C23.5548 8.63062 22.7178 11.0125 21.4559 11.6049C19.4069 12.5601 17.2455 11.1334 17.2455 11.1334" fill="#65BA67"/>
<g opacity="0.2">
<path opacity="0.2" d="M19.1695 7.54246C19.132 7.53037 19.0945 7.50619 19.0696 7.46991C18.9946 7.38528 19.0071 7.25228 19.107 7.17974C19.5068 6.86538 19.8442 6.39385 20.219 5.84977C20.3064 5.71677 20.4064 5.58377 20.5063 5.43869C20.7937 5.03969 21.181 4.84624 21.6557 4.87043C21.7682 4.88252 21.8681 4.97924 21.8556 5.08806C21.8431 5.19687 21.7432 5.2936 21.6308 5.28151C21.3059 5.25733 21.056 5.39032 20.8561 5.66841C20.7562 5.80141 20.6562 5.94649 20.5688 6.0674C20.169 6.63566 19.8192 7.13138 19.3694 7.48201C19.3069 7.55455 19.232 7.56664 19.1695 7.54246Z" fill="#FFEAC2"/>
</g>
<path fill-rule="evenodd" clip-rule="evenodd" d="M13.5224 8.95703C13.5224 8.95703 13.7223 9.85174 13.0726 10.7706C13.0726 10.7706 13.1601 11.3389 14.1971 11.6049C14.1971 11.6049 14.7718 10.7102 15.384 10.4925C15.4089 10.4805 15.6838 10.4563 15.7088 10.4563C15.7088 10.4563 15.5714 10.154 15.4464 10.1661C15.2965 10.1782 15.1216 10.3354 14.8217 10.3354C14.5219 10.3475 14.7718 10.0573 14.9842 9.85174C15.1466 9.70665 15.259 9.5132 15.259 9.5132L15.0716 9.35602C15.0716 9.35602 14.7093 9.83965 14.5094 9.87592C14.3095 9.92428 14.4719 9.46484 14.5719 9.15048C14.6343 8.96912 14.2845 8.98121 14.2845 8.98121C14.2845 8.98121 14.2096 9.65829 14.0346 9.69456C13.8597 9.73083 13.9347 9.11421 13.9347 9.11421L13.5224 8.95703Z" fill="#99D19A"/>
<path fill-rule="evenodd" clip-rule="evenodd" d="M13.0227 8.76359C13.0227 8.76359 12.9228 9.04167 13.1227 9.18676C13.2601 9.28348 13.3851 9.31976 13.535 9.21094C13.6724 9.11422 13.6849 9.02958 13.6849 9.02958C13.6849 9.02958 13.7349 9.2593 13.9848 9.30767C14.2471 9.35603 14.3471 9.09003 14.3471 9.09003C14.3471 9.09003 14.7219 9.29557 14.9218 9.09003C15.0967 8.92076 14.9468 8.53386 14.9468 8.53386C14.9468 8.53386 15.2716 8.6185 15.409 8.29205C15.5839 7.86888 15.0217 7.77215 15.0217 7.77215C15.0217 7.77215 15.2716 7.39734 15.0842 7.22807C14.7469 6.90163 14.4845 7.21598 14.4845 7.21598C14.4845 7.21598 14.5595 6.97417 14.2971 6.88954C13.9598 6.76863 13.8473 7.0588 13.8098 7.27644C13.8098 7.27644 13.485 6.73236 13.1352 7.03462C12.7979 7.3248 13.1477 7.61497 13.1477 7.61497C13.1477 7.61497 12.498 7.31271 12.4605 7.86888C12.448 8.08651 12.8853 8.14696 12.8853 8.14696C12.8853 8.14696 12.3481 8.24369 12.498 8.59432C12.6729 8.99331 13.0227 8.76359 13.0227 8.76359Z" fill="#6FBE70"/>
<path fill-rule="evenodd" clip-rule="evenodd" d="M15.4714 9.68247C15.4714 9.68247 15.134 9.75501 15.109 9.98473C15.0716 10.2145 15.1465 10.287 15.3214 10.3475C15.4838 10.4079 15.5963 10.3595 15.5963 10.3595C15.5963 10.3595 15.3589 10.553 15.4464 10.7948C15.5463 11.0366 15.9086 10.9399 15.9086 10.9399C15.9086 10.9399 15.9336 11.351 16.2335 11.4114C16.4833 11.4598 16.7332 11.1333 16.7332 11.1333C16.7332 11.1333 16.8332 11.4477 17.183 11.3752C17.6453 11.2784 17.4329 10.7827 17.4329 10.7827C17.4329 10.7827 17.8452 10.8069 17.9326 10.5409C18.07 10.1419 17.6078 10.0452 17.6078 10.0452C17.6078 10.0452 17.8202 9.92428 17.7702 9.74292C17.6827 9.40438 17.3954 9.44065 17.1955 9.53738C17.1955 9.53738 17.4828 8.98121 17.0331 8.8603C16.5958 8.7394 16.5333 9.18675 16.5333 9.18675C16.5333 9.18675 16.4459 8.49758 15.9461 8.76358C15.7462 8.87239 15.9336 9.25929 15.9336 9.25929C15.9336 9.25929 15.5588 8.87239 15.3339 9.18675C15.0841 9.5132 15.4714 9.68247 15.4714 9.68247Z" fill="#6FBE70"/>
<path fill-rule="evenodd" clip-rule="evenodd" d="M15.1968 7.92929C15.1968 7.92929 14.8595 8.00184 14.8345 8.23156C14.797 8.46128 14.872 8.53383 15.0469 8.59428C15.2093 8.65473 15.3218 8.60637 15.3218 8.60637C15.3218 8.60637 15.0844 8.79982 15.1718 9.04163C15.2718 9.28345 15.6341 9.18672 15.6341 9.18672C15.6341 9.18672 15.6591 9.5978 15.9589 9.65825C16.2088 9.70662 16.4587 9.38017 16.4587 9.38017C16.4587 9.38017 16.5586 9.69453 16.9085 9.62198C17.3707 9.52526 17.1583 9.02954 17.1583 9.02954C17.1583 9.02954 17.5706 9.05372 17.6581 8.78773C17.7955 8.38874 17.3332 8.29201 17.3332 8.29201C17.3332 8.29201 17.5456 8.17111 17.4957 7.98975C17.4082 7.65121 17.1208 7.68748 16.9209 7.7842C16.9209 7.7842 17.2083 7.22803 16.7585 7.10713C16.3213 6.98622 16.2588 7.43358 16.2588 7.43358C16.2588 7.43358 16.1713 6.74441 15.6716 7.0104C15.4717 7.11922 15.6591 7.50612 15.6591 7.50612C15.6591 7.50612 15.2843 7.11922 15.0594 7.43358C14.8095 7.76002 15.1968 7.92929 15.1968 7.92929Z" fill="#65BA67"/>
<path fill-rule="evenodd" clip-rule="evenodd" d="M14.6844 7.85673C14.6844 7.85673 14.322 7.83255 14.2096 8.06227C14.0971 8.29199 14.1596 8.37662 14.322 8.49753C14.472 8.60635 14.5969 8.58217 14.5969 8.58217C14.5969 8.58217 14.1971 8.76353 14.2221 9.02952C14.2471 9.3076 14.7343 9.25924 14.7343 9.25924C14.7343 9.25924 14.6344 9.68241 14.9217 9.8275C15.1591 9.94841 15.5089 9.68241 15.5089 9.68241C15.5089 9.68241 15.5214 10.033 15.8962 10.0572C16.396 10.0935 16.3335 9.52524 16.3335 9.52524C16.3335 9.52524 16.7458 9.73078 16.9207 9.42851C17.1581 9.04161 16.7458 8.82398 16.7458 8.82398C16.7458 8.82398 16.9957 8.75143 17.0082 8.55798C17.0207 8.19526 16.7208 8.1469 16.4834 8.18317C16.4834 8.18317 16.9582 7.69955 16.5334 7.44564C16.1211 7.20383 15.9212 7.63909 15.9212 7.63909C15.9212 7.63909 16.0087 6.97411 15.434 7.09502C15.1966 7.14338 15.284 7.54237 15.284 7.54237C15.284 7.54237 15.0217 7.04665 14.6968 7.30056C14.347 7.57864 14.6844 7.85673 14.6844 7.85673Z" fill="#85C886"/>
<path fill-rule="evenodd" clip-rule="evenodd" d="M15.4089 10.4805C15.4089 10.4805 14.8717 10.8795 14.1096 10.8916C13.3475 10.8916 13.0726 10.7706 13.0726 10.7706C13.0726 10.7706 13.1601 11.3389 14.1971 11.6049C14.1971 11.6049 14.7718 10.7102 15.384 10.4926" fill="#8BCB8C"/>
<path d="M7.87542 7.49414C7.87542 7.49414 5.51412 10.7707 7.713 12.5601C10.599 14.9057 12.9978 10.9642 12.9978 10.9642L7.87542 7.49414Z" fill="#FAAE42"/>
<path d="M12.1359 7.28858C13.4478 8.37673 13.7726 10.1057 12.8481 11.1455C11.9235 12.1853 10.112 12.149 8.80012 11.0609C7.48828 9.9727 7.16344 8.24374 8.08798 7.20394C9.00001 6.16415 10.8241 6.20042 12.1359 7.28858Z" fill="#B1DCB2"/>
<path d="M11.0362 8.53395C11.486 8.90876 11.5984 9.48911 11.2736 9.85183C10.9613 10.2025 10.3491 10.1904 9.8993 9.82765C9.44953 9.45284 9.33709 8.87249 9.66192 8.50977C9.97426 8.14705 10.5865 8.15914 11.0362 8.53395Z" fill="#DFF1DF"/>
<path d="M9.61188 8.18346C9.66186 8.14719 9.64936 8.07464 9.62438 7.97792C9.58689 7.8691 9.42448 7.66356 9.27455 7.76029C9.13712 7.85701 9.1746 7.96583 9.26206 8.07464C9.34951 8.15928 9.52443 8.2681 9.61188 8.18346Z" fill="#37A539"/>
<path d="M9.26204 8.69115C9.28703 8.64279 9.26204 8.58234 9.18708 8.4977C9.11212 8.41307 8.87474 8.28007 8.78728 8.41307C8.69983 8.54607 8.77479 8.64279 8.89973 8.70324C9.01217 8.7637 9.21207 8.79997 9.26204 8.69115Z" fill="#37A539"/>
<path d="M9.31209 9.24723C9.2996 9.18678 9.24962 9.15051 9.13718 9.12633C9.02474 9.09006 8.74988 9.10215 8.74988 9.27142C8.74988 9.42859 8.87481 9.46487 9.01224 9.45278C9.13718 9.44068 9.32459 9.36814 9.31209 9.24723Z" fill="#37A539"/>
<path d="M9.46211 9.75511C9.42463 9.70675 9.36216 9.70675 9.24972 9.74302C9.13728 9.7672 8.91239 9.92438 9.01234 10.0695C9.09979 10.2025 9.22473 10.1662 9.33717 10.0816C9.42463 10.009 9.53707 9.85183 9.46211 9.75511Z" fill="#37A539"/>
<path d="M9.89923 10.1783C9.84926 10.1541 9.78679 10.1783 9.69933 10.2508C9.61188 10.3233 9.46195 10.541 9.61188 10.6377C9.74931 10.7223 9.84926 10.6498 9.92422 10.5289C9.9617 10.4201 9.99918 10.2266 9.89923 10.1783Z" fill="#37A539"/>
<path d="M10.4866 10.3718C10.4241 10.3597 10.3741 10.4081 10.3116 10.5048C10.2492 10.6015 10.1867 10.8554 10.3616 10.9038C10.524 10.9401 10.5865 10.8434 10.6115 10.7104C10.6365 10.5774 10.6115 10.3839 10.4866 10.3718Z" fill="#37A539"/>
<path d="M11.0486 10.3234C10.9986 10.3476 10.9861 10.4081 10.9861 10.529C10.9861 10.6378 11.0986 10.8917 11.261 10.8312C11.4109 10.7708 11.4109 10.6499 11.3485 10.529C11.2985 10.4201 11.1611 10.2751 11.0486 10.3234Z" fill="#37A539"/>
<path d="M11.4611 10.0574C11.4361 10.1057 11.4611 10.1662 11.5361 10.2508C11.611 10.3355 11.8484 10.4806 11.9359 10.3355C12.0233 10.2025 11.9483 10.1057 11.8234 10.0453C11.711 9.98484 11.5111 9.96066 11.4611 10.0574Z" fill="#37A539"/>
<path d="M11.6859 9.45296C11.6734 9.51341 11.7109 9.56177 11.8108 9.62223C11.8983 9.69477 12.1732 9.76731 12.2231 9.59804C12.2731 9.45296 12.1732 9.36832 12.0357 9.34414C11.9108 9.31996 11.7109 9.34414 11.6859 9.45296Z" fill="#37A539"/>
<path d="M11.6984 8.92098C11.7109 8.98144 11.7734 9.00562 11.8983 9.01771C12.0107 9.0298 12.2856 8.98144 12.2481 8.81217C12.2231 8.65499 12.0982 8.63081 11.9608 8.67917C11.8358 8.70335 11.6609 8.80008 11.6984 8.92098Z" fill="#37A539"/>
<path d="M11.3235 8.49775C11.361 8.53402 11.436 8.53402 11.5359 8.49775C11.6484 8.46148 11.8608 8.29221 11.7483 8.15921C11.6484 8.03831 11.5234 8.07458 11.4235 8.15921C11.336 8.24385 11.2361 8.41312 11.3235 8.49775Z" fill="#37A539"/>
<path d="M10.8239 8.09876C10.8739 8.12294 10.9364 8.08667 11.0238 8.01412C11.1113 7.94158 11.2487 7.71186 11.0988 7.61513C10.9613 7.5305 10.8614 7.61513 10.7989 7.73604C10.749 7.85695 10.7115 8.0504 10.8239 8.09876Z" fill="#37A539"/>
<path d="M10.174 7.97774C10.2365 7.97774 10.274 7.92938 10.324 7.82056C10.3739 7.72383 10.3864 7.45784 10.2115 7.43366C10.0491 7.42157 9.99913 7.53038 9.98663 7.66338C9.99913 7.78429 10.0491 7.97774 10.174 7.97774Z" fill="#37A539"/>
<path d="M15.534 20.9267H11.3486C10.5865 20.9267 9.9743 20.3343 9.9743 19.5967V19.2461H16.8958V19.5967C16.9083 20.3343 16.2836 20.9267 15.534 20.9267Z" fill="white"/>
<path d="M9.99939 19.4879V19.8385C9.99939 20.0924 10.2493 20.4068 10.3617 20.5277C10.3617 20.5277 12.9729 20.5035 13.4351 20.5035C13.8849 20.5035 16.5461 20.4793 16.5461 20.4793C16.696 20.3101 16.8584 20.0683 16.8584 19.8385V19.4879H9.99939Z" fill="#FFF7F1"/>
<path d="M24.3047 10.7587H2.69061C2.69061 13.6967 3.95247 16.3566 5.96395 18.2549C7.31327 19.5244 9.13735 20.2136 11.0114 20.2136H15.9964C17.8704 20.2136 19.682 19.5244 21.0313 18.267C23.0553 16.3566 24.3047 13.6967 24.3047 10.7587Z" fill="white"/>
<path d="M14.747 20.2136C16.6835 20.274 18.3577 20.2498 20.3442 18.8473C22.4431 17.1788 23.8799 14.7607 24.2172 12.0161H24.2297C24.2422 11.871 24.2547 11.6896 24.2672 11.4962C24.2797 11.3753 24.2797 11.2423 24.2922 11.1214C24.2922 10.9884 24.3047 10.8554 24.3047 10.7587H19.7445H2.69061C2.69061 11.2181 2.7156 11.6776 2.77807 12.1128L19.5321 12.0403C18.695 16.0906 16.2587 18.8473 14.747 20.2136Z" fill="#FFF7F1"/>
<path d="M24.6418 11.351H2.24062C2.00324 11.351 1.80334 11.1575 1.80334 10.9278C1.80334 10.6981 2.00324 10.5046 2.24062 10.5046H24.6293C24.8667 10.5046 25.0666 10.6981 25.0666 10.9278C25.0791 11.1575 24.8792 11.351 24.6418 11.351Z" fill="white"/>
</svg>
